<?xml version='1.0' encoding='utf-8'?>
<svg xmlns="http://www.w3.org/2000/svg" id="svg1631" version="1.1" viewBox="0 0 3000 2436.3804" height="2436.3804mm" width="3000mm"> <title id="title1712">Shopping Cart</title> <defs id="defs1625"/> <metadata id="metadata1628"> </metadata> <g transform="translate(2.9540897,-84.161998)" id="layer1"> <g id="g1691" transform="matrix(13.790979,0,0,13.790979,57.347228,256.18884)"> <path id="path1689" d="m 10.969187,-12.46858 c -4.0360603,-0.02437 -6.751532,0.04341 -6.751532,0.04341 -4.75903386,0 -8.590174,5.4191637 -8.590174,10.1781923 v 0.6826436 c 0,4.7590286 3.83114014,10.177674 8.590174,10.177674 0,0 10.882339,-6.4102588 23.007373,-1.5875 3.392143,1.3492242 7.273607,4.7157371 10.644822,8.1762441 L 82.084214,139.49682 c 1.49592,4.20527 5.976453,6.45648 10.204545,5.21829 -0.692758,1.69315 -1.050422,3.50464 -1.053166,5.33404 4e-5,7.81027 6.331503,14.14173 14.141777,14.14177 7.81027,-4e-5 14.14173,-6.3315 14.14177,-14.14177 -0.005,-1.90803 -0.39688,-3.79523 -1.15084,-5.54798 l 39.85804,-0.46199 c -0.70491,1.70691 -1.06867,3.53536 -1.07074,5.3821 4e-5,7.81027 6.3315,14.14173 14.14177,14.14177 7.81027,-4e-5 14.14173,-6.3315 14.14177,-14.14177 -0.005,-4.04378 -1.74109,-7.89192 -4.76921,-10.57197 0.24039,-0.7386 0.37004,-1.52778 0.36483,-2.34921 -0.026,-4.09629 -3.34459,-9.48999 -7.44089,-9.46402 l -72.97797,0.6997 -8.514728,-21.81934 79.685578,-0.76894 c 1.55409,-0.01 2.99704,-0.46295 4.21369,-1.23662 1.51624,-0.49363 2.81207,-1.62617 3.46388,-3.22513 l 33.27807,-81.633772 c 0.71816,-1.761733 0.48011,-3.664757 -0.46819,-5.148524 -0.28978,-4.2449511 -5.46437,-7.597931 -11.81737,-7.5638791 L 52.268464,7.1338408 C 51.269874,5.8587423 49.932294,4.9188286 48.436647,4.4006765 42.103077,-2.8842418 32.609457,-9.9213065 27.225028,-10.837672 19.623813,-12.131308 17.695927,-12.427966 10.969187,-12.46858 Z M 190.66673,24.352945 165.97625,87.178566 87.740199,87.951647 c 0,0 -16.39389,-41.841898 -23.288501,-62.851976 C 118.62314,24.850687 138.3425,24.60222 190.66673,24.352945 Z m -45.98685,4.134115 c -0.82228,0.02032 -1.59634,0.548521 -1.87844,1.351856 l -3.75378,10.68927 h -14.69677 l 2.72696,-7.765417 c 0.42848,-1.220185 -0.23024,-2.479218 -1.47691,-2.823083 l -1.1927,-0.329182 c -1.24667,-0.343865 -2.59562,0.361633 -3.0241,1.581817 l -3.27835,9.335865 H 96.1185 c -1.465792,0 -2.645833,1.180042 -2.645833,2.645833 0,1.465792 1.180041,2.645834 2.645833,2.645834 h 20.129 l -3.18533,9.071279 H 88.937026 c -1.465792,0 -2.645834,1.180042 -2.645834,2.645833 0,1.465792 1.180042,2.645833 2.645834,2.645833 h 22.266854 l -3.25768,9.276954 c -0.42848,1.220184 0.23024,2.479733 1.47691,2.823601 l 1.19321,0.328663 c 1.24668,0.343866 2.59511,-0.361633 3.02359,-1.581817 l 3.80907,-10.847401 h 14.69678 l -3.93568,11.20707 c -0.3472,0.988717 0.18664,2.008561 1.19683,2.287199 l 2.69906,0.744656 c 1.01018,0.278638 2.08498,-0.299288 2.44998,-1.281575 l 4.5501,-12.95735 h 14.7774 l -5.11597,14.56862 c -0.42848,1.220184 0.23024,2.479733 1.47691,2.823602 l 0.63562,0.175183 c 1.24668,0.343866 2.59511,-0.361633 3.02359,-1.581817 l 5.61361,-15.985588 h 5.77123 c 1.46579,0 2.64583,-1.180041 2.64583,-2.645833 0,-1.465791 -1.18004,-2.645833 -2.64583,-2.645833 h -3.91346 l 3.18534,-9.071279 h 7.90959 2.11667 c 1.46579,0 2.64583,-1.180042 2.64583,-2.645834 0,-1.465791 -1.18004,-2.645833 -2.64583,-2.645833 h -2.11667 -6.05131 l 2.99258,-8.521443 c 0.42848,-1.220184 -0.23023,-2.479217 -1.47691,-2.823086 l -0.6351,-0.175183 c -1.24668,-0.343866 -2.59511,0.361633 -3.02359,1.581817 l -3.48971,9.937895 h -14.77791 l 3.13934,-8.93899 c 0.3472,-0.988719 -0.18664,-2.009079 -1.19682,-2.287714 l -2.69906,-0.74466 c -0.18941,-0.05224 -0.38179,-0.07445 -0.57154,-0.06976 z M 122.4926,45.819853 h 14.69678 l -3.18534,9.071279 h -14.69677 z m 21.65707,0 h 14.77791 l -3.18585,9.071279 h -14.77739 z" style="fill:#000000;fill-rule:evenodd;stroke-width:0.278391"/> </g> </g> </svg>